<?xml version="1.0" encoding="UTF-8"?>
<svg id="Layer_2" xmlns="http://www.w3.org/2000/svg" version="1.1" viewBox="0 0 381.2 32.1">
  <!-- Generator: Adobe Illustrator 30.4.0, SVG Export Plug-In . SVG Version: 2.1.4 Build 226)  -->
  <defs>
    <style>
      .st0 {
        letter-spacing: .2em;
      }

      .st0, .st1, .st2 {
        fill: #bcbec0;
      }

      .st0, .st3, .st2 {
        isolation: isolate;
      }

      .st0, .st2 {
        font-family: HelveticaNeueLTPro-Bd, 'Helvetica Neue LT Pro';
        font-size: 11.4px;
      }

      .st4 {
        fill: none;
        stroke: #fff;
        stroke-miterlimit: 10;
      }

      .st5 {
        fill: #7c5cff;
      }

      .st2 {
        letter-spacing: .1em;
      }
    </style>
  </defs>
  <g id="Layer_1-2">
    <g>
      <g id="RMIT_white">
        <g>
          <path class="st1" d="M7.4,5.3h-1.9v1.5h-3.2v3.2H0v4.7h2.4v3.2h3.2v1.5h1.7c3.9,0,7.4-3.2,7.4-7.1s-3.2-7.1-7.1-7.1"/>
          <polygon class="st1" points="45.5 6.7 47.2 6.7 47.2 18.2 45.5 18.2 45.5 18.8 51.3 18.8 51.3 18.2 49.6 18.2 49.6 6.7 51.3 6.7 51.3 6.1 45.5 6.1 45.5 6.7"/>
          <path class="st1" d="M62.2,6.1h-10.2l-.2,3.4h.6c.3-2.4.8-3,3.5-2.9v11.6h-1.8v.6h6v-.6h-1.8V6.6c2.7-.1,3.1.4,3.5,2.9h.6l-.2-3.4h0Z"/>
          <path class="st1" d="M40.4,6.9v11.3h-1.6v.6h5.7v-.6h-1.6V6.7h1.6v-.6h-4.7l-2.8,8.7-2.7-8.7h-4.7v.6h1.6v11.5h-1.8c-1.6,0-1.7-1.4-1.7-1.7,0-3.1-.7-4.2-3.6-4.7h0c1.8-.2,4-.7,4-2.9s-2.5-2.9-4.5-2.9h-6.1v.6h1.6v11.5h-1.6v.6h5.7v-.6h-1.6v-6.1c1.1,0,2.2.2,2.8.7.5.4.8,1.7.8,3.3s1,2.7,2.9,2.7h5.5v-.6h-1.6V6.9h0l3.8,11.9h.6l3.8-11.9h0ZM21.7,11.5h0v-4.8h1.7c1.7,0,2.3.4,2.3,2.6s-.7,2.3-2.4,2.3h-1.6Z"/>
          <path class="st1" d="M22.3,22.4v2.8c0,.8-.5,1.2-1.2,1.2s-1.2-.4-1.2-1.2v-2.8c0-.3-.1-.5-.5-.5h-.7v.6h.3c.1,0,.2,0,.2.2h0v2.5c0,1.1.8,1.8,1.9,1.8s1.9-.7,1.9-1.8v-2.5c0-.1,0-.2.2-.2h.3v-.6h-.7c-.3,0-.5.1-.5.5"/>
          <path class="st1" d="M27.7,22.4v2.7c0,.3,0,.7,0,.7h0s-.2-.4-.4-.7l-2.2-3.2h-.6v4.2c0,.1,0,.2-.2.2h-.3v.6h.7c.3,0,.5-.1.5-.5v-2.7c0-.3,0-.7,0-.7h0s.2.4.4.7l2.2,3.2h.6v-4.2c0-.1,0-.2.2-.2h.3v-.6h-.7c-.3,0-.5.1-.5.5"/>
          <polygon class="st1" points="29.6 22.5 30.1 22.5 30.1 26.3 29.6 26.3 29.6 26.9 31.2 26.9 31.2 26.3 30.8 26.3 30.8 22.5 31.2 22.5 31.2 21.9 29.6 21.9 29.6 22.5"/>
          <path class="st1" d="M35.2,22.3l-1.1,3.1c0,.3-.2.7-.2.7h0s0-.4-.2-.7l-1.1-3.1c-.1-.3-.2-.4-.6-.4h-.4v.6h.1c.1,0,.2,0,.2.2h0l1.6,4.2h.8l1.6-4.2c0-.1,0-.2.2-.2h0v-.6h-.4c-.3,0-.5,0-.6.4"/>
          <path class="st1" d="M39.6,26.1c0,.1,0,.2-.2.2h-1.5c0,0-.2,0-.2-.2v-1.5h1.7v-.6h-1.7v-1.6h1.4c0,0,.2,0,.2.2v.3h.6v-.6c0-.3-.1-.5-.5-.5h-2.9v.6h.5v3.9c0,.3.1.5.5.5h2.2c.3,0,.5-.1.5-.5v-.6h-.7v.3h0Z"/>
          <path class="st1" d="M44.3,26.1l-.6-1.2c0-.2-.2-.2-.2-.2h0c.4,0,.9-.5.9-1.3s-.6-1.5-1.5-1.5h-2.2v.6h.5v4.4h.7v-2h.7c.3,0,.4,0,.5.3l.7,1.3c.2.3.3.4.7.4h.3v-.6h0c-.2,0-.3,0-.4-.2M42.8,24.3h-.9v-1.8h.9c.5,0,.8.3.8.9s-.3.9-.8.9"/>
          <path class="st1" d="M46.1,23.1c0-.4.3-.7.9-.7s.8.2.8.5v.2h.7v-.4c0-.7-.9-.9-1.4-.9-1,0-1.6.6-1.6,1.3,0,1.5,2.4,1.4,2.4,2.4s-.4.7-.8.7c-.7,0-1.2-.6-1.2-.6l-.4.5s.6.7,1.7.7,1.6-.6,1.6-1.4c0-1.6-2.4-1.4-2.4-2.4"/>
          <polygon class="st1" points="45.7 25.7 45.7 25.7 45.7 25.7 45.7 25.7"/>
          <polygon class="st1" points="49.2 22.5 49.7 22.5 49.7 26.3 49.2 26.3 49.2 26.9 50.9 26.9 50.9 26.3 50.4 26.3 50.4 22.5 50.9 22.5 50.9 21.9 49.2 21.9 49.2 22.5"/>
          <path class="st1" d="M55.2,21.9h-3.4c-.3,0-.4.1-.4.4v.6h.6v-.3c0-.1,0-.2.2-.2h1v4.4h.7v-4.4h1c0,0,.2,0,.2.2v.3h.6v-.6c0-.3,0-.4-.4-.4"/>
          <path class="st1" d="M59.1,22.3l-.8,1.3c-.2.3-.3.6-.3.6h0s-.1-.3-.3-.6l-.8-1.3c-.2-.3-.3-.4-.7-.4h-.3v.6h.1c.2,0,.2,0,.3.2l1.3,2h0v2.2h.7v-2.2l1.3-2c0-.1.2-.2.3-.2h.1v-.6h-.3c-.3,0-.5,0-.7.4"/>
        </g>
      </g>
      <line class="st4" x1="75" x2="75" y2="31"/>
      <g>
        <path class="st5" d="M87.9,24.5h.6c.7,0,.9-.1,1.2-.8L97.7,1.7h5.2l8,22c.2.7.5.8,1.2.8h.6v4.2h-3c-1.9,0-2.6-.5-3.2-2.2l-1.7-4.7h-9.1l-1.7,4.7c-.6,1.7-1.3,2.2-3.2,2.2h-3v-4.2h0ZM103.8,17.7l-2.3-6.8c-.5-1.5-1.1-4-1.1-4h0s-.6,2.6-1.1,4l-2.3,6.8h6.9Z"/>
        <path class="st5" d="M123.2,8.9c4.2,0,5.6,2.4,5.6,2.4h0s0-.5,0-1.1v-3.4c0-.6-.3-.8-.8-.8h-1.5V1.7h4.6c1.8,0,2.6.8,2.6,2.6v19.5c0,.5.3.8.8.8h1.5v4.1h-4.5c-1.8,0-2.4-.8-2.4-2v-.7h0s-1.6,3.2-6.1,3.2-8.6-4.1-8.6-10.2,3.7-10.2,8.8-10.2h0ZM129,19c0-3-1.6-6-4.8-6s-4.9,2.2-4.9,6,1.9,6.1,4.8,6.1,4.9-1.8,4.9-6.1Z"/>
        <path class="st1" d="M151.7,1.3c3.5,0,10.2,1.5,10.2,6v3h-4.5v-1.5c0-2-3.2-2.9-5.6-2.9-4.8,0-8.6,3.5-8.6,9.1s3.9,9.6,8.8,9.6,8.2-3.6,8.2-3.6l2.6,3.6s-3.9,4.6-10.9,4.6-13.9-6.2-13.9-14.2,5.9-13.8,13.7-13.8h0Z"/>
        <path class="st1" d="M175.7,8.9c5.9,0,10.7,4.2,10.7,10.2s-4.7,10.2-10.7,10.2-10.6-4.2-10.6-10.2,4.7-10.2,10.6-10.2ZM175.7,25.1c3.2,0,5.8-2.4,5.8-6.1s-2.6-6.1-5.8-6.1-5.8,2.5-5.8,6.1,2.6,6,5.8,6.1Z"/>
        <path class="st1" d="M199.4,8.9c5.9,0,10.7,4.2,10.7,10.2s-4.7,10.2-10.7,10.2-10.6-4.2-10.6-10.2,4.7-10.2,10.6-10.2ZM199.4,25.1c3.2,0,5.8-2.4,5.8-6.1s-2.6-6.1-5.8-6.1-5.8,2.5-5.8,6.1,2.6,6,5.8,6.1Z"/>
        <path class="st1" d="M214,6.7c0-.6-.3-.8-.8-.8h-1.5V1.7h4.6c1.8,0,2.6.4,2.6,2.2v12.3h1.4c.6,0,1.4-.1,1.8-.7l4-6.1h5.4l-4.9,7.3c-.8,1.2-1.4,1.5-1.4,1.5h0c0,0,.7.4,1.4,1.6l2.2,4.2c.3.6.7.7,1.6.7h1.3v4.1h-3.6c-1.6,0-2.3-.3-3.1-1.7l-3.2-6.1c-.4-.7-1.2-.7-1.8-.7h-1.1v8.5h-4.8V6.7h0Z"/>
        <path class="st1" d="M242.8,8.9c5.6,0,8.6,4.1,8.6,9.2s-.1,1.8-.1,1.8h-13.4c.4,3.4,2.9,5.2,5.8,5.2s5.4-2.2,5.4-2.2l2,3.4s-3,2.9-7.8,2.9-10.4-4.6-10.4-10.2,4-10.2,9.9-10.2h0ZM246.5,16.5c0-2.3-1.7-3.9-3.7-3.9s-4.2,1.5-4.8,3.9h8.4Z"/>
        <path class="st1" d="M256.1,14.3c0-.6-.3-.8-.8-.8h-1.5v-4.1h4.4c1.7,0,2.6.7,2.6,2.4v1.1c0,.7,0,1.2,0,1.2h0c.9-2.8,3.2-5,6.2-5s.9,0,.9,0v4.8s-.5,0-1.2,0c-2.1,0-4.4,1.2-5.3,4.1-.3,1-.4,2-.4,3.2v7.7h-4.8v-14.5h0Z"/>
      </g>
      <g class="st3">
        <text class="st2" transform="translate(280.8 14.3)"><tspan x="0" y="0">MEDIUM RARE</tspan></text>
        <text class="st0" transform="translate(280.8 29.6)"><tspan x="0" y="0">EDITION</tspan></text>
      </g>
    </g>
  </g>
</svg>