<?xml version="1.0" encoding="UTF-8"?>
<svg id="Layer_2" xmlns="http://www.w3.org/2000/svg" version="1.1" xmlns:xlink="http://www.w3.org/1999/xlink" viewBox="0 0 1008 130.7">
  <!-- Generator: Adobe Illustrator 30.5.1, SVG Export Plug-In . SVG Version: 2.1.4 Build 3)  -->
  <defs>
    <style>
      .st0 {
        fill: url(#linear-gradient2);
      }

      .st1 {
        fill: url(#linear-gradient1);
      }

      .st2 {
        fill: none;
        isolation: isolate;
        opacity: .2;
        stroke: gray;
        stroke-miterlimit: 10;
        stroke-width: 3px;
      }

      .st3 {
        fill: #e61e2a;
      }

      .st4 {
        fill: #000054;
      }

      .st5 {
        fill: url(#linear-gradient3);
      }

      .st6 {
        fill: #bbc2f0;
      }

      .st7 {
        fill: url(#linear-gradient);
      }
    </style>
    <linearGradient id="linear-gradient" x1="711.9" y1="51.6" x2="890.2" y2="52.2" gradientTransform="translate(0 132) scale(1 -1)" gradientUnits="userSpaceOnUse">
      <stop offset="0" stop-color="#7c5cff"/>
      <stop offset=".1" stop-color="#7a5bfc"/>
      <stop offset=".2" stop-color="#7658f4"/>
      <stop offset=".3" stop-color="#6f53e5"/>
      <stop offset=".3" stop-color="#664bd1"/>
      <stop offset=".4" stop-color="#5942b7"/>
      <stop offset=".5" stop-color="#4a3797"/>
      <stop offset=".5" stop-color="#3c2d7a"/>
      <stop offset=".5" stop-color="#46348d"/>
      <stop offset=".6" stop-color="#4f3ba0"/>
      <stop offset=".7" stop-color="#5640ae"/>
      <stop offset=".8" stop-color="#5a43b6"/>
      <stop offset="1" stop-color="#5c44b9"/>
    </linearGradient>
    <linearGradient id="linear-gradient1" x1="711.9" y1="51.9" x2="890.2" y2="51.9" gradientTransform="translate(0 132) scale(1 -1)" gradientUnits="userSpaceOnUse">
      <stop offset="0" stop-color="#7c5cff"/>
      <stop offset=".2" stop-color="#7a5afc"/>
      <stop offset=".2" stop-color="#7657f2"/>
      <stop offset=".3" stop-color="#6e52e2"/>
      <stop offset=".4" stop-color="#644acb"/>
      <stop offset=".5" stop-color="#5c44b9"/>
      <stop offset=".5" stop-color="#5c44b9"/>
      <stop offset="1" stop-color="#5c44b9"/>
    </linearGradient>
    <linearGradient id="linear-gradient2" x1="711.9" y1="51.6" x2="890.2" y2="52.2" gradientTransform="translate(0 132) scale(1 -1)" gradientUnits="userSpaceOnUse">
      <stop offset="0" stop-color="#7c5cff"/>
      <stop offset=".1" stop-color="#7a5bfc"/>
      <stop offset=".2" stop-color="#7658f4"/>
      <stop offset=".3" stop-color="#6f53e5"/>
      <stop offset=".3" stop-color="#664bd1"/>
      <stop offset=".4" stop-color="#5942b7"/>
      <stop offset=".5" stop-color="#4a3797"/>
      <stop offset=".5" stop-color="#3c2d7a"/>
      <stop offset=".5" stop-color="#46348d"/>
      <stop offset=".6" stop-color="#4f3ba0"/>
      <stop offset=".7" stop-color="#5640ae"/>
      <stop offset=".8" stop-color="#5a43b6"/>
      <stop offset="1" stop-color="#5c44b9"/>
    </linearGradient>
    <linearGradient id="linear-gradient3" x1="711.9" y1="51.9" x2="890.2" y2="51.9" gradientTransform="translate(0 132) scale(1 -1)" gradientUnits="userSpaceOnUse">
      <stop offset="0" stop-color="#7c5cff"/>
      <stop offset=".2" stop-color="#7a5afc"/>
      <stop offset=".2" stop-color="#7657f2"/>
      <stop offset=".3" stop-color="#6e52e2"/>
      <stop offset=".4" stop-color="#644acb"/>
      <stop offset=".5" stop-color="#5c44b9"/>
      <stop offset=".5" stop-color="#5c44b9"/>
      <stop offset="1" stop-color="#5c44b9"/>
    </linearGradient>
  </defs>
  <g id="Layer_1-2">
    <g>
      <path class="st7" d="M800.8,65.7c-.8.8-1.5,1.6-2.2,2.4-.8.9-1.7,1.9-2.5,2.9-.4.5-.8,1-1.3,1.5-.2.2-.4.5-.6.8-.1.1-.2.3-.3.4-.1.1-.2.3-.3.4h0c-.2.2-.3.4-.5.6-.2.2-.4.4-.5.6-.4.4-.7.9-1.1,1.3-.8.9-1.5,1.7-2.3,2.6-1.5,1.7-3.1,3.4-4.7,5-3.2,3.3-6.5,6.4-9.9,9.3-.8.7-1.7,1.4-2.6,2.1s-1.7,1.3-2.6,2c-1.7,1.3-3.5,2.4-5.2,3.4-.2.1-.4.2-.7.4-.2.1-.4.2-.6.3-.2.1-.4.2-.6.3-.2.1-.4.2-.6.3-.8.4-1.7.8-2.4,1-.8.3-1.5.5-2.2.6-.7.1-1.2.2-1.7.2h0c-3.2,0-6.3-.6-9.2-1.9h0s-.1,0-.4-.2c-.1,0-.3-.1-.5-.2-.2,0-.4-.2-.7-.3-.1,0-.3-.1-.4-.2,0,0-.2,0-.2-.1,0,0-.2,0-.2-.1-.3-.2-.7-.4-1-.6-.7-.5-1.6-1.1-2.5-1.8-.9-.8-1.8-1.7-2.8-2.8l-.2-.2c0,0-.1-.1-.2-.2-.1-.2-.2-.3-.4-.4s-.2-.3-.3-.5c0,0-.1-.2-.2-.2,0,0-.1-.2-.2-.2-.5-.7-.9-1.4-1.3-2.1-.1-.2-.2-.4-.3-.6,0-.2-.2-.4-.3-.6,0,0,0,0,0-.2,0,0,0,0,0-.2,0,0,0-.2-.1-.3,0-.1,0-.2-.2-.3,0-.1,0-.2-.1-.3-.2-.4-.3-.9-.5-1.3,0-.2-.2-.5-.2-.7,0-.2-.1-.5-.2-.7-.5-2-.9-4.1-.9-6.5h-19.5c0,4.2.6,8.2,1.6,11.8.1.4.2.9.4,1.3s.3.9.4,1.3c.3.8.6,1.7,1,2.5,0,.2.2.4.2.6,0,.2.2.4.3.6,0,.2.2.4.3.6,0,0,0,.2.1.3,0,0,0,.2.1.3.2.4.4.7.5,1.1.2.4.4.7.6,1.1.8,1.4,1.6,2.7,2.4,3.9,0,.2.2.3.3.4.1.1.2.3.3.4.2.3.4.6.6.8.2.3.4.5.7.8.1.1.2.3.3.4s.2.2.3.4c1.7,2,3.5,3.7,5.1,5,1.6,1.4,3.2,2.4,4.5,3.3s1.3.8,1.9,1.1c.1,0,.3.2.4.2.1,0,.3.2.4.2.3.1.5.3.8.4.5.2.9.4,1.2.6.4.2.7.3.9.4l.7.3h0c2.7,1.1,5.4,2,8.3,2.6,2.8.6,5.7.9,8.6.9h0c2,0,3.8-.2,5.6-.6,1.7-.3,3.3-.8,4.8-1.4s2.9-1.2,4.3-1.8c.3-.2.7-.3,1-.5.3-.2.7-.3,1-.5.3-.2.6-.3,1-.5.3-.2.6-.3.9-.5,2.5-1.4,4.8-3,7-4.6,1.1-.8,2.2-1.6,3.2-2.4,1-.8,2.1-1.7,3.1-2.5,4-3.4,7.7-6.9,11.3-10.6,1.8-1.8,3.5-3.7,5.2-5.6.8-.9,1.7-1.9,2.5-2.9.4-.5.8-1,1.3-1.5.2-.2.4-.5.6-.8.1-.1.2-.3.3-.4.1-.1.2-.3.3-.4h0c.2-.2.3-.4.5-.6.2-.2.4-.4.5-.6.4-.4.7-.9,1.1-1.3.8-.9,1.5-1.7,2.3-2.6.2-.2.4-.5.7-.7-.7-.8-5.1-6.5-5.1-6.5-.2-.2-3.6-3.8-7.8-8.3h0ZM889.7,73.6c0-.2,0-.5-.1-.8,0-.2,0-.5-.1-.7,0-.5-.2-1-.3-1.4s-.2-.9-.3-1.4-.2-.9-.3-1.3c0-.2-.1-.4-.2-.6,0-.2-.1-.4-.2-.6s-.1-.4-.2-.6c0-.2-.1-.4-.2-.6-.1-.4-.3-.8-.4-1.1-.1-.4-.3-.7-.4-1-.3-.7-.6-1.3-.8-1.9-.1-.3-.3-.6-.4-.9-.1-.3-.3-.5-.4-.8-1.1-2.1-2-3.5-2.7-4.5-.3-.5-.6-.8-.8-1.1l-.3-.3h0c-4-5.4-9.3-9.8-15.3-12.8-3-1.5-6.2-2.7-9.5-3.4s-6.6-1.2-10-1.2h0c-2,0-3.8.2-5.6.6-1.7.3-3.3.8-4.8,1.4-1.5.5-2.9,1.2-4.3,1.8-.3.2-.7.3-1,.5-.3.2-.7.3-1,.5-.3.2-.6.3-1,.5-.3.2-.6.3-.9.5-2.5,1.4-4.8,3-7,4.5-1.1.8-2.2,1.6-3.2,2.4-1,.8-2.1,1.7-3.1,2.5-3.6,3-7,6.2-10.2,9.5,1.7,1.9,10.8,12.1,13,14.6,3.2-3.2,6.5-6.4,9.8-9.2.8-.7,1.7-1.4,2.6-2.1s1.7-1.3,2.6-2c1.7-1.3,3.5-2.4,5.2-3.4.2-.1.4-.2.7-.4.2-.1.4-.2.6-.3.2-.1.4-.2.6-.3.2-.1.4-.2.6-.3.8-.4,1.7-.8,2.4-1,.8-.3,1.5-.5,2.2-.6.7-.1,1.2-.2,1.7-.2h0c3.7,0,7.3.9,10.6,2.5,3.3,1.7,6.2,4.1,8.4,7h0s.2.3.6.8c.3.5.9,1.3,1.5,2.5,0,.1.2.3.2.4,0,.2.2.3.2.5.1.3.3.7.5,1.1,0,.2.2.4.2.6,0,.2.1.4.2.6,0,0,0,.2.1.3,0,.1,0,.2,0,.3,0,.1,0,.2.1.3s0,.2,0,.3c0,.2.1.5.2.7s.1.5.2.8c0,.2.1.5.2.8,0,.1,0,.3,0,.4,0,.1,0,.3,0,.4.2,1.1.3,2.3.3,3.6h19.5c0-2.3-.2-4.5-.5-6.5h0Z"/>
      <path class="st6" d="M457.9,69.5h2.7v-.7c0-12.3-4.9-16.9-15.9-16.9s-11.5,1-11.5,5.8v4.6h-19.9v-9.1c0-16.1,22.6-17.8,31.6-17.8,28.7,0,37.2,15,37.2,34.3v32.1c0,2.4,1.4,3.7,3.7,3.7h6.8v18.1h-19.3c-7.9,0-11-4.4-11-9.5s.2-3.7.2-3.7h-.3s-6.6,15.2-26,15.2-29.4-9.6-29.4-26.9c0-27,37.2-29.2,51.2-29.2h0ZM441.3,108.9c11.5,0,19.6-12.2,19.6-22.7v-2h-3.7c-11.1,0-28.9,1.5-28.9,13.5s4.2,11.2,13,11.2Z"/>
      <path class="st6" d="M540.4,35.4c18.8,0,24.8,10.5,24.8,10.5h.3s-.2-2.2-.2-5.1v-15.2c0-2.5-1.3-3.7-3.7-3.7h-6.8V3.6h20.5c7.9,0,11.5,3.5,11.5,11.5v86.7c0,2.4,1.3,3.7,3.7,3.7h6.6v18.1h-19.8c-7.8,0-10.7-3.7-10.7-8.8v-3.2h-.3s-7.1,14-26.9,14-38.4-18.4-38.4-45.1,16.4-45.1,39.2-45.1h0ZM565.9,80.3c0-13.3-6.9-26.5-21.3-26.5s-21.6,9.6-21.6,26.7,8.6,27,21.3,27,21.6-8.1,21.6-27.2Z"/>
      <path class="st6" d="M614.9,54.5h-10.7v-17.1h10.7v-2.5c0-28.2,23.2-31.9,35.2-31.9s7.3.5,7.3.5v18.3s-1.9-.3-4.4-.3c-6.1,0-16.6,1.5-16.6,14v2h18.4v17.1h-18.4v69.1h-21.5V54.5h0Z"/>
      <path class="st6" d="M674.9,25.6c0-2.5-1.3-3.7-3.7-3.7h-6.8V3.6h20.5c7.9,0,11.5,3.5,11.5,11.5v86.7c0,2.4,1.3,3.7,3.7,3.7h6.6v18.1h-20.3c-8.1,0-11.5-3.4-11.5-11.5V25.6Z"/>
      <path class="st1" d="M870.6,80.1h19.5c0,2.8-.3,5.6-.8,8.2s-1.2,5.1-2.1,7.4c-.1.3-.2.6-.3.9,0,.1-.1.3-.2.4s-.1.3-.2.4c-.2.6-.5,1.1-.8,1.7-.3.5-.5,1.1-.8,1.6,0,.1-.1.3-.2.4s-.1.2-.2.4c-.1.2-.3.5-.4.8-1.2,2-2.5,3.8-3.8,5.4-.3.4-.7.8-1,1.2-.2.2-.3.4-.5.6-.2.2-.3.4-.5.6-.2.2-.3.4-.5.6,0,0-.2.2-.3.3s-.2.2-.3.3c-.4.3-.7.7-1.1,1-1.4,1.3-2.9,2.5-4.3,3.5-.7.5-1.5,1-2.2,1.4-.3.2-.7.4-1.1.6-.4.2-.7.4-1,.6-.3.2-.7.4-1,.6-.2,0-.3.2-.5.3-.2,0-.3.2-.5.2-.3.2-.7.3-1,.5-.2,0-.3.2-.5.2,0,0-.2,0-.2.1,0,0-.2,0-.2,0-.3.1-.7.3-1,.4-.2,0-.3.1-.5.2-.2,0-.3.1-.5.2-.6.2-1.2.4-1.8.6-.6.2-1.2.3-1.7.5-.3,0-.5.1-.8.2-.3,0-.5.1-.8.2-.3,0-.5.1-.8.2-.2,0-.5,0-.7.1-.5,0-.9.2-1.4.2-.4,0-.9.1-1.3.2-.2,0-.4,0-.6,0s-.4,0-.5,0c-.7,0-1.3,0-1.9.1-.1,0-.3,0-.4,0s-.2,0-.3,0c-.2,0-.4,0-.6,0-.7,0-1.1,0-1.1,0h0c-1.2,0-2.4,0-3.5-.2-1.8-.2-3.4-.6-4.9-1.1-.4-.1-.8-.2-1.1-.4l-1.1-.4c-.3-.1-.7-.3-1.1-.4-.3-.1-.7-.3-1-.4-1.4-.6-2.7-1.2-3.9-1.9-1.2-.7-2.4-1.3-3.6-2.1-1.2-.7-2.3-1.4-3.3-2.2-1.1-.8-2.1-1.5-3.2-2.3-1-.8-2-1.6-3-2.4-1-.8-2-1.6-2.9-2.4-3.8-3.3-7.4-6.7-10.8-10.2-1.7-1.8-3.4-3.6-5-5.4-.8-.9-1.6-1.8-2.4-2.8-.4-.5-.8-.9-1.2-1.4-.2-.2-.4-.5-.6-.7-.2-.3-.4-.5-.7-.8h0l-.5-.6c-.2-.2-.4-.4-.5-.6-.4-.4-.7-.9-1.1-1.3-.8-.9-1.5-1.7-2.3-2.6-1.5-1.7-3.1-3.4-4.7-5-3.2-3.3-6.5-6.4-9.9-9.3-.8-.7-1.7-1.4-2.6-2.1s-1.7-1.3-2.6-2c-1.7-1.3-3.5-2.4-5.2-3.4-.2-.1-.4-.2-.7-.4-.2-.1-.4-.2-.6-.3-.2-.1-.4-.2-.6-.3-.2-.1-.4-.2-.6-.3-.8-.4-1.7-.8-2.4-1-.8-.3-1.5-.5-2.2-.6-.7-.1-1.2-.2-1.7-.2h0c-.6,0-1.2,0-1.9,0h-.6c-.2,0-.4,0-.7.1s-.3,0-.5,0c-.2,0-.3,0-.5,0s-.4,0-.6,0c0,0,0,0-.2,0,0,0,0,0-.2,0-.1,0-.2,0-.3,0-.2,0-.5,0-.7.2-.2,0-.5.1-.8.2-1.1.3-2.3.8-3.6,1.4-1.3.7-2.8,1.5-4.2,2.7-.2.2-.4.3-.5.4l-.5.5c0,0-.2.2-.3.2,0,0-.2.2-.3.3-.2.2-.4.3-.5.5-.2.2-.3.4-.5.6,0,0-.2.2-.3.3,0,0-.2.2-.3.3-.2.2-.3.4-.5.6-.2.2-.3.4-.5.7-.2.2-.3.4-.5.7-.2.2-.3.5-.5.7-.2.2-.3.5-.5.7-.1.3-.3.5-.4.8-.6,1.1-1.1,2.2-1.6,3.4-.9,2.4-1.4,5.2-1.4,8.2h-19.5c0-2.7.2-5.3.7-7.8s1.1-4.9,1.9-7.1c.8-2.2,1.8-4.3,2.8-6.2.3-.5.5-1,.8-1.4.3-.5.6-.9.9-1.3.3-.5.6-.9.9-1.3.3-.4.6-.8.9-1.2s.6-.8.9-1.2c.3-.4.6-.8,1-1.1.2-.2.3-.4.5-.5.2-.2.3-.3.5-.5.3-.3.7-.7,1-1,.3-.3.7-.6,1-1,.2-.2.3-.3.5-.5.2-.2.3-.3.5-.4.3-.3.7-.6,1-.9.3-.3.7-.5,1-.8,2.7-2.1,5.3-3.7,7.7-4.8s4.7-2,6.6-2.6c.5-.1,1-.3,1.4-.4.5-.1.9-.2,1.3-.3.2,0,.4,0,.6-.1,0,0,.2,0,.3,0,0,0,.2,0,.3,0,.4,0,.7-.1,1.1-.2.3,0,.6-.1.9-.2.3,0,.6,0,.8-.1.5,0,.9-.1,1.3-.2.7,0,1,0,1,0,1.1-.1,2.2-.1,3.4-.1h0c2,0,3.8.2,5.6.6,1.7.3,3.3.8,4.8,1.4,1.5.5,2.9,1.2,4.3,1.8.3.2.7.3,1,.5.3.2.7.3,1,.5.3.2.6.3,1,.5.3.2.6.3.9.5,2.5,1.4,4.8,3,7,4.5,1.1.8,2.2,1.6,3.2,2.4,1,.8,2.1,1.7,3.1,2.5,4,3.4,7.7,6.9,11.3,10.6,1.8,1.8,3.5,3.7,5.2,5.6.8.9,1.7,1.9,2.5,2.9.4.5.8,1,1.3,1.5.2.2.4.5.6.8.1.1.2.3.3.4.1.1.2.3.3.4h0c.2.2.3.4.5.6.2.2.3.4.5.6.3.4.7.8,1.1,1.2.7.8,1.5,1.7,2.2,2.5,1.5,1.6,3,3.3,4.5,4.8,3.1,3.2,6.2,6.2,9.5,9,.8.7,1.6,1.4,2.5,2.1.8.7,1.7,1.3,2.5,1.9.8.6,1.7,1.2,2.5,1.8.8.6,1.7,1.1,2.5,1.6.8.5,1.7,1,2.5,1.4.8.4,1.6.8,2.4,1.2.2,0,.4.2.6.2s.4.2.6.2c.2,0,.4.1.5.2.2,0,.4.1.5.2.7.2,1.3.3,1.9.4.4,0,.7,0,.9,0h0s.2,0,.6,0c.2,0,.4,0,.7,0s.6,0,1,0c0,0,.2,0,.3,0s.2,0,.3,0c.2,0,.5,0,.7,0,.2,0,.5,0,.8-.1.1,0,.3,0,.4,0,.1,0,.3,0,.4,0,.1,0,.3,0,.4,0,.2,0,.3,0,.5-.1.3,0,.6-.2,1-.3.3-.1.7-.2,1-.3,0,0,.2,0,.3,0,0,0,.2,0,.3,0,.2,0,.3-.1.5-.2,0,0,0,0,.1,0,0,0,0,0,.1,0,0,0,.2,0,.3-.1.2,0,.4-.2.6-.2,0,0,.2,0,.3-.1s.2,0,.3-.2c.2,0,.4-.2.6-.3.2-.1.4-.2.6-.3.2-.1.4-.2.6-.3.4-.2.8-.5,1.2-.8.8-.6,1.6-1.2,2.4-1.9.2-.2.4-.4.6-.6,0,0,0,0,.2-.1,0,0,0,0,.1-.2,0,0,.2-.2.3-.3,0,0,.2-.2.3-.3,0,0,.2-.2.3-.3.2-.2.4-.4.6-.7.7-.9,1.4-1.9,2.1-3,0-.1.2-.3.2-.4,0,0,0-.1.1-.2s0-.1.1-.2c.1-.3.3-.6.5-.9.1-.3.3-.6.4-.9,0,0,0-.2,0-.2,0,0,0-.2,0-.2,0-.2.1-.3.2-.5,1-2.6,1.6-5.4,1.6-8.6h0Z"/>
      <path class="st6" d="M993.4,37.4c-7,0-10.4,2.2-12.1,8.7l-12.4,47.4c-1.2,4.5-1.7,9.1-1.7,9.1h-.3s-.5-4.5-1.8-9.1l-15.9-55.8h-18.8l-15.8,55.8c-1.3,4.5-2,9.1-2,9.1h-.3s-.5-4.5-1.7-9.1l-12.6-47.4c-1.7-6.5-5-8.7-12.1-8.7h-11.6c14.1,9,23.5,24.7,23.5,42.7s-2,15.8-5.4,22.7l6.4,20.1h24.1l14.4-48.8c1.3-4.5,2.2-9.2,2.2-9.2h.3s.7,4.7,2,9.2l14.6,48.8h24l20.4-64.3c1-2.5,2.2-3,4.7-3h2.3v-18.1h-14.6,0Z"/>
      <g id="RMIT_white">
        <g>
          <path class="st3" d="M36.5,17.7h-9.3v7.6h-15.6v15.8H0v23.2h11.7v15.8h15.5v7.6h8.2c19.2,0,36.2-15.5,36.2-34.9s-15.8-35.1-35.1-35.1h0Z"/>
          <polygon class="st4" points="223.8 24.4 231.9 24.4 231.9 81 223.8 81 223.8 83.9 251.9 83.9 251.9 81 243.8 81 243.8 24.4 251.9 24.4 251.9 21.4 223.8 21.4 223.8 24.4"/>
          <path class="st4" d="M305.4,21.4h-50l-1,16.5h3c1.7-12,3.9-14.8,17.1-14.1v57.2h-8.6v2.9h29.2v-2.9h-8.6V23.7c13.2-.7,15.4,2.2,17.1,14.1h2.9l-1-16.5h0Z"/>
          <path class="st4" d="M198.4,25.3v55.6h-8.1v2.9h28.1v-2.9h-8.1V24.3h8v-3h-23.1l-13.6,42.8-13.1-42.8h-23v3h8.1v56.6h-8.7c-8.1.2-8.2-6.7-8.2-8.1.1-15.2-3.3-20.8-17.9-23v-.2c8.7-.9,19.9-3.4,19.9-14s-12.1-14.2-22.4-14.2h-30.1v3h8.1v56.6h-8.1v3h28.1v-3h-8.1v-29.8c5.2-.2,11,1.1,13.7,3.4,2.4,2.1,3.8,8.5,3.8,16.2s4.9,13.2,14.4,13.2h27.1v-2.9h-7.9V25.3h.2l18.6,58.6h3.1l18.7-58.6h.3ZM106.4,48.2h0s0-23.8,0-23.8h8.1c8.3,0,11.4,2.1,11.4,12.6s-3.5,11.2-11.9,11.2h-7.7,0Z"/>
          <path class="st4" d="M109.6,101.3v13.5c0,3.7-2.3,5.9-5.8,5.9s-5.8-2.2-5.8-5.8v-13.6c0-1.6-.7-2.2-2.2-2.2h-3.5v3h1.5c.5,0,.8.2.8.8h0v12.2c0,5.3,3.8,9,9.4,9s9.3-3.7,9.3-9v-12.2c0-.5.3-.8.8-.8h1.5v-3h-3.5c-1.6,0-2.3.7-2.3,2.2h0Z"/>
          <path class="st4" d="M135.9,101.3v13.3c0,1.4.2,3.3.2,3.3h0s-1.1-2-2-3.3l-10.9-15.5h-3.2v20.7c0,.5-.3.8-.8.8h-1.5v3h3.5c1.6,0,2.2-.7,2.2-2.2v-13.3c0-1.4-.2-3.3-.2-3.3h0s1.1,2,2,3.3l10.9,15.5h3.1v-20.7c0-.5.3-.8.8-.8h1.5v-3h-3.5c-1.6,0-2.3.7-2.3,2.2h0Z"/>
          <polygon class="st4" points="145.4 102.1 147.8 102.1 147.8 120.6 145.4 120.6 145.4 123.6 153.4 123.6 153.4 120.6 151.1 120.6 151.1 102.1 153.4 102.1 153.4 99.1 145.4 99.1 145.4 102.1"/>
          <path class="st4" d="M173.1,101.1l-5.4,15.1c-.5,1.3-.9,3.4-.9,3.4h0s-.5-2.1-.9-3.4l-5.4-15.1c-.6-1.6-1.2-2-2.9-2h-1.9v3h.5c.6,0,.9.1,1.1.8h0l7.7,20.7h3.7l7.7-20.7c.2-.6.5-.8,1.1-.8h.5v-3h-1.9c-1.7,0-2.3.4-2.9,2h0Z"/>
          <path class="st4" d="M194.4,119.8c0,.5-.3.8-.8.8h-7.2c-.5,0-.8-.3-.8-.8v-7.1h8.6v-3h-8.6v-7.7h7c.5,0,.8.2.8.8v1.6h3.1v-3.1c0-1.6-.7-2.2-2.2-2.2h-14.4v3h2.3v19.3c0,1.6.7,2.2,2.2,2.2h10.9c1.6,0,2.2-.7,2.2-2.2v-3.1h-3.2v1.6h0Z"/>
          <path class="st4" d="M217.8,119.8l-3-5.8c-.4-.8-1.1-1.1-1.1-1.1h0c1.8-.4,4.4-2.4,4.4-6.5s-3-7.2-7.3-7.2h-10.7v3h2.3v21.5h3.5v-9.8h3.2c1.3,0,1.8.2,2.4,1.3l3.3,6.6c.8,1.6,1.5,1.8,3.4,1.8h1.7v-3h-.4c-.9,0-1.4,0-1.8-.8h0ZM210.4,110.8h-4.5v-8.8h4.6c2.6,0,4.1,1.6,4.1,4.3s-1.6,4.4-4.2,4.4Z"/>
          <path class="st4" d="M226.4,105.1c0-1.8,1.6-3.3,4.3-3.3s3.8.9,3.8,2.2v1.2h3.2v-2c0-3.3-4.4-4.5-7-4.5-4.6,0-7.9,2.9-7.9,6.6,0,7.6,11.8,6.8,11.8,12s-1.9,3.7-4.2,3.7c-3.5,0-6-2.8-6.1-2.9l-2,2.4s2.9,3.7,8.1,3.7,7.8-3.2,7.8-7c0-8.1-11.8-6.9-11.8-11.9h0Z"/>
          <path class="st4" d="M224.4,117.9s0,0,0,0h0s0,0,0,0h0Z"/>
          <polygon class="st4" points="241.9 102.1 244.3 102.1 244.3 120.6 241.9 120.6 241.9 123.6 250 123.6 250 120.6 247.6 120.6 247.6 102.1 250 102.1 250 99.1 241.9 99.1 241.9 102.1"/>
          <path class="st4" d="M271.1,99.1h-16.9c-1.6,0-2.1.5-2.1,2.1v3.2h3.1v-1.6c0-.5.3-.8.8-.8h4.9v21.5h3.5v-21.5h4.9c.5,0,.8.2.8.8v1.6h3.1v-3.2c0-1.6-.5-2.1-2.1-2.1h0Z"/>
          <path class="st4" d="M290.1,100.9l-3.7,6.2c-.8,1.3-1.5,2.7-1.5,2.7h0s-.7-1.4-1.5-2.7l-3.7-6.2c-1-1.6-1.6-1.9-3.3-1.9h-1.6v3h.7c.7,0,1,.1,1.5.9l6.2,10h0v10.7h3.5v-10.7l6.2-10c.5-.7.8-.9,1.5-.9h.7v-3h-1.6c-1.6,0-2.4.2-3.3,1.9h0Z"/>
        </g>
      </g>
      <line class="st2" x1="363.2" x2="363.2" y2="130.7"/>
      <g>
        <path class="st0" d="M800.8,65.7c-.8.8-1.5,1.6-2.2,2.4-.8.9-1.7,1.9-2.5,2.9-.4.5-.8,1-1.3,1.5-.2.2-.4.5-.6.8-.1.1-.2.3-.3.4-.1.1-.2.3-.3.4h0c-.2.2-.3.4-.5.6-.2.2-.4.4-.5.6-.4.4-.7.9-1.1,1.3-.8.9-1.5,1.7-2.3,2.6-1.5,1.7-3.1,3.4-4.7,5-3.2,3.3-6.5,6.4-9.9,9.3-.8.7-1.7,1.4-2.6,2.1s-1.7,1.3-2.6,2c-1.7,1.3-3.5,2.4-5.2,3.4-.2.1-.4.2-.7.4-.2.1-.4.2-.6.3-.2.1-.4.2-.6.3-.2.1-.4.2-.6.3-.8.4-1.7.8-2.4,1-.8.3-1.5.5-2.2.6-.7.1-1.2.2-1.7.2h0c-3.2,0-6.3-.6-9.2-1.9h0s-.1,0-.4-.2c-.1,0-.3-.1-.5-.2-.2,0-.4-.2-.7-.3-.1,0-.3-.1-.4-.2,0,0-.2,0-.2-.1,0,0-.2,0-.2-.1-.3-.2-.7-.4-1-.6-.7-.5-1.6-1.1-2.5-1.8-.9-.8-1.8-1.7-2.8-2.8l-.2-.2c0,0-.1-.1-.2-.2-.1-.2-.2-.3-.4-.4s-.2-.3-.3-.5c0,0-.1-.2-.2-.2,0,0-.1-.2-.2-.2-.5-.7-.9-1.4-1.3-2.1-.1-.2-.2-.4-.3-.6,0-.2-.2-.4-.3-.6,0,0,0,0,0-.2,0,0,0,0,0-.2,0,0,0-.2-.1-.3,0-.1,0-.2-.2-.3,0-.1,0-.2-.1-.3-.2-.4-.3-.9-.5-1.3,0-.2-.2-.5-.2-.7,0-.2-.1-.5-.2-.7-.5-2-.9-4.1-.9-6.5h-19.5c0,4.2.6,8.2,1.6,11.8.1.4.2.9.4,1.3s.3.9.4,1.3c.3.8.6,1.7,1,2.5,0,.2.2.4.2.6,0,.2.2.4.3.6,0,.2.2.4.3.6,0,0,0,.2.1.3,0,0,0,.2.1.3.2.4.4.7.5,1.1.2.4.4.7.6,1.1.8,1.4,1.6,2.7,2.4,3.9,0,.2.2.3.3.4.1.1.2.3.3.4.2.3.4.6.6.8.2.3.4.5.7.8.1.1.2.3.3.4s.2.2.3.4c1.7,2,3.5,3.7,5.1,5,1.6,1.4,3.2,2.4,4.5,3.3s1.3.8,1.9,1.1c.1,0,.3.2.4.2.1,0,.3.2.4.2.3.1.5.3.8.4.5.2.9.4,1.2.6.4.2.7.3.9.4l.7.3h0c2.7,1.1,5.4,2,8.3,2.6,2.8.6,5.7.9,8.6.9h0c2,0,3.8-.2,5.6-.6,1.7-.3,3.3-.8,4.8-1.4s2.9-1.2,4.3-1.8c.3-.2.7-.3,1-.5.3-.2.7-.3,1-.5.3-.2.6-.3,1-.5.3-.2.6-.3.9-.5,2.5-1.4,4.8-3,7-4.6,1.1-.8,2.2-1.6,3.2-2.4,1-.8,2.1-1.7,3.1-2.5,4-3.4,7.7-6.9,11.3-10.6,1.8-1.8,3.5-3.7,5.2-5.6.8-.9,1.7-1.9,2.5-2.9.4-.5.8-1,1.3-1.5.2-.2.4-.5.6-.8.1-.1.2-.3.3-.4.1-.1.2-.3.3-.4h0c.2-.2.3-.4.5-.6.2-.2.4-.4.5-.6.4-.4.7-.9,1.1-1.3.8-.9,1.5-1.7,2.3-2.6.2-.2.4-.5.7-.7-.7-.8-5.1-6.5-5.1-6.5-.2-.2-3.6-3.8-7.8-8.3h0ZM889.7,73.6c0-.2,0-.5-.1-.8,0-.2,0-.5-.1-.7,0-.5-.2-1-.3-1.4s-.2-.9-.3-1.4-.2-.9-.3-1.3c0-.2-.1-.4-.2-.6,0-.2-.1-.4-.2-.6s-.1-.4-.2-.6c0-.2-.1-.4-.2-.6-.1-.4-.3-.8-.4-1.1-.1-.4-.3-.7-.4-1-.3-.7-.6-1.3-.8-1.9-.1-.3-.3-.6-.4-.9-.1-.3-.3-.5-.4-.8-1.1-2.1-2-3.5-2.7-4.5-.3-.5-.6-.8-.8-1.1l-.3-.3h0c-4-5.4-9.3-9.8-15.3-12.8-3-1.5-6.2-2.7-9.5-3.4s-6.6-1.2-10-1.2h0c-2,0-3.8.2-5.6.6-1.7.3-3.3.8-4.8,1.4-1.5.5-2.9,1.2-4.3,1.8-.3.2-.7.3-1,.5-.3.2-.7.3-1,.5-.3.2-.6.3-1,.5-.3.2-.6.3-.9.5-2.5,1.4-4.8,3-7,4.5-1.1.8-2.2,1.6-3.2,2.4-1,.8-2.1,1.7-3.1,2.5-3.6,3-7,6.2-10.2,9.5,1.7,1.9,10.8,12.1,13,14.6,3.2-3.2,6.5-6.4,9.8-9.2.8-.7,1.7-1.4,2.6-2.1s1.7-1.3,2.6-2c1.7-1.3,3.5-2.4,5.2-3.4.2-.1.4-.2.7-.4.2-.1.4-.2.6-.3.2-.1.4-.2.6-.3.2-.1.4-.2.6-.3.8-.4,1.7-.8,2.4-1,.8-.3,1.5-.5,2.2-.6.7-.1,1.2-.2,1.7-.2h0c3.7,0,7.3.9,10.6,2.5,3.3,1.7,6.2,4.1,8.4,7h0s.2.3.6.8c.3.5.9,1.3,1.5,2.5,0,.1.2.3.2.4,0,.2.2.3.2.5.1.3.3.7.5,1.1,0,.2.2.4.2.6,0,.2.1.4.2.6,0,0,0,.2.1.3,0,.1,0,.2,0,.3,0,.1,0,.2.1.3s0,.2,0,.3c0,.2.1.5.2.7s.1.5.2.8c0,.2.1.5.2.8,0,.1,0,.3,0,.4,0,.1,0,.3,0,.4.2,1.1.3,2.3.3,3.6h19.5c0-2.3-.2-4.5-.5-6.5h0Z"/>
        <path class="st5" d="M870.6,80.1h19.5c0,2.8-.3,5.6-.8,8.2s-1.2,5.1-2.1,7.4c-.1.3-.2.6-.3.9,0,.1-.1.3-.2.4s-.1.3-.2.4c-.2.6-.5,1.1-.8,1.7-.3.5-.5,1.1-.8,1.6,0,.1-.1.3-.2.4s-.1.2-.2.4c-.1.2-.3.5-.4.8-1.2,2-2.5,3.8-3.8,5.4-.3.4-.7.8-1,1.2-.2.2-.3.4-.5.6-.2.2-.3.4-.5.6-.2.2-.3.4-.5.6,0,0-.2.2-.3.3s-.2.2-.3.3c-.4.3-.7.7-1.1,1-1.4,1.3-2.9,2.5-4.3,3.5-.7.5-1.5,1-2.2,1.4-.3.2-.7.4-1.1.6-.4.2-.7.4-1,.6-.3.2-.7.4-1,.6-.2,0-.3.2-.5.3-.2,0-.3.2-.5.2-.3.2-.7.3-1,.5-.2,0-.3.2-.5.2,0,0-.2,0-.2.1,0,0-.2,0-.2,0-.3.1-.7.3-1,.4-.2,0-.3.1-.5.2-.2,0-.3.1-.5.2-.6.2-1.2.4-1.8.6-.6.2-1.2.3-1.7.5-.3,0-.5.1-.8.2-.3,0-.5.1-.8.2-.3,0-.5.1-.8.2-.2,0-.5,0-.7.1-.5,0-.9.2-1.4.2-.4,0-.9.1-1.3.2-.2,0-.4,0-.6,0s-.4,0-.5,0c-.7,0-1.3,0-1.9.1-.1,0-.3,0-.4,0s-.2,0-.3,0c-.2,0-.4,0-.6,0-.7,0-1.1,0-1.1,0h0c-1.2,0-2.4,0-3.5-.2-1.8-.2-3.4-.6-4.9-1.1-.4-.1-.8-.2-1.1-.4l-1.1-.4c-.3-.1-.7-.3-1.1-.4-.3-.1-.7-.3-1-.4-1.4-.6-2.7-1.2-3.9-1.9-1.2-.7-2.4-1.3-3.6-2.1-1.2-.7-2.3-1.4-3.3-2.2-1.1-.8-2.1-1.5-3.2-2.3-1-.8-2-1.6-3-2.4-1-.8-2-1.6-2.9-2.4-3.8-3.3-7.4-6.7-10.8-10.2-1.7-1.8-3.4-3.6-5-5.4-.8-.9-1.6-1.8-2.4-2.8-.4-.5-.8-.9-1.2-1.4-.2-.2-.4-.5-.6-.7-.2-.3-.4-.5-.7-.8h0l-.5-.6c-.2-.2-.4-.4-.5-.6-.4-.4-.7-.9-1.1-1.3-.8-.9-1.5-1.7-2.3-2.6-1.5-1.7-3.1-3.4-4.7-5-3.2-3.3-6.5-6.4-9.9-9.3-.8-.7-1.7-1.4-2.6-2.1s-1.7-1.3-2.6-2c-1.7-1.3-3.5-2.4-5.2-3.4-.2-.1-.4-.2-.7-.4-.2-.1-.4-.2-.6-.3-.2-.1-.4-.2-.6-.3-.2-.1-.4-.2-.6-.3-.8-.4-1.7-.8-2.4-1-.8-.3-1.5-.5-2.2-.6-.7-.1-1.2-.2-1.7-.2h0c-.6,0-1.2,0-1.9,0h-.6c-.2,0-.4,0-.7.1s-.3,0-.5,0c-.2,0-.3,0-.5,0s-.4,0-.6,0c0,0,0,0-.2,0,0,0,0,0-.2,0-.1,0-.2,0-.3,0-.2,0-.5,0-.7.2-.2,0-.5.1-.8.2-1.1.3-2.3.8-3.6,1.4-1.3.7-2.8,1.5-4.2,2.7-.2.2-.4.3-.5.4l-.5.5c0,0-.2.2-.3.2,0,0-.2.2-.3.3-.2.2-.4.3-.5.5-.2.2-.3.4-.5.6,0,0-.2.2-.3.3,0,0-.2.2-.3.3-.2.2-.3.4-.5.6-.2.2-.3.4-.5.7-.2.2-.3.4-.5.7-.2.2-.3.5-.5.7-.2.2-.3.5-.5.7-.1.3-.3.5-.4.8-.6,1.1-1.1,2.2-1.6,3.4-.9,2.4-1.4,5.2-1.4,8.2h-19.5c0-2.7.2-5.3.7-7.8s1.1-4.9,1.9-7.1c.8-2.2,1.8-4.3,2.8-6.2.3-.5.5-1,.8-1.4.3-.5.6-.9.9-1.3.3-.5.6-.9.9-1.3.3-.4.6-.8.9-1.2s.6-.8.9-1.2c.3-.4.6-.8,1-1.1.2-.2.3-.4.5-.5.2-.2.3-.3.5-.5.3-.3.7-.7,1-1,.3-.3.7-.6,1-1,.2-.2.3-.3.5-.5.2-.2.3-.3.5-.4.3-.3.7-.6,1-.9.3-.3.7-.5,1-.8,2.7-2.1,5.3-3.7,7.7-4.8s4.7-2,6.6-2.6c.5-.1,1-.3,1.4-.4.5-.1.9-.2,1.3-.3.2,0,.4,0,.6-.1,0,0,.2,0,.3,0,0,0,.2,0,.3,0,.4,0,.7-.1,1.1-.2.3,0,.6-.1.9-.2.3,0,.6,0,.8-.1.5,0,.9-.1,1.3-.2.7,0,1,0,1,0,1.1-.1,2.2-.1,3.4-.1h0c2,0,3.8.2,5.6.6,1.7.3,3.3.8,4.8,1.4,1.5.5,2.9,1.2,4.3,1.8.3.2.7.3,1,.5.3.2.7.3,1,.5.3.2.6.3,1,.5.3.2.6.3.9.5,2.5,1.4,4.8,3,7,4.5,1.1.8,2.2,1.6,3.2,2.4,1,.8,2.1,1.7,3.1,2.5,4,3.4,7.7,6.9,11.3,10.6,1.8,1.8,3.5,3.7,5.2,5.6.8.9,1.7,1.9,2.5,2.9.4.5.8,1,1.3,1.5.2.2.4.5.6.8.1.1.2.3.3.4.1.1.2.3.3.4h0c.2.2.3.4.5.6.2.2.3.4.5.6.3.4.7.8,1.1,1.2.7.8,1.5,1.7,2.2,2.5,1.5,1.6,3,3.3,4.5,4.8,3.1,3.2,6.2,6.2,9.5,9,.8.7,1.6,1.4,2.5,2.1.8.7,1.7,1.3,2.5,1.9.8.6,1.7,1.2,2.5,1.8.8.6,1.7,1.1,2.5,1.6.8.5,1.7,1,2.5,1.4.8.4,1.6.8,2.4,1.2.2,0,.4.2.6.2s.4.2.6.2c.2,0,.4.1.5.2.2,0,.4.1.5.2.7.2,1.3.3,1.9.4.4,0,.7,0,.9,0h0s.2,0,.6,0c.2,0,.4,0,.7,0s.6,0,1,0c0,0,.2,0,.3,0s.2,0,.3,0c.2,0,.5,0,.7,0,.2,0,.5,0,.8-.1.1,0,.3,0,.4,0,.1,0,.3,0,.4,0,.1,0,.3,0,.4,0,.2,0,.3,0,.5-.1.3,0,.6-.2,1-.3.3-.1.7-.2,1-.3,0,0,.2,0,.3,0,0,0,.2,0,.3,0,.2,0,.3-.1.5-.2,0,0,0,0,.1,0,0,0,0,0,.1,0,0,0,.2,0,.3-.1.2,0,.4-.2.6-.2,0,0,.2,0,.3-.1s.2,0,.3-.2c.2,0,.4-.2.6-.3.2-.1.4-.2.6-.3.2-.1.4-.2.6-.3.4-.2.8-.5,1.2-.8.8-.6,1.6-1.2,2.4-1.9.2-.2.4-.4.6-.6,0,0,0,0,.2-.1,0,0,0,0,.1-.2,0,0,.2-.2.3-.3,0,0,.2-.2.3-.3,0,0,.2-.2.3-.3.2-.2.4-.4.6-.7.7-.9,1.4-1.9,2.1-3,0-.1.2-.3.2-.4,0,0,0-.1.1-.2s0-.1.1-.2c.1-.3.3-.6.5-.9.1-.3.3-.6.4-.9,0,0,0-.2,0-.2,0,0,0-.2,0-.2,0-.2.1-.3.2-.5,1-2.6,1.6-5.4,1.6-8.6h0Z"/>
      </g>
    </g>
  </g>
</svg>