<?xml version="1.0" encoding="UTF-8"?>
<svg id="Layer_2" data-name="Layer 2" xmlns="http://www.w3.org/2000/svg" xmlns:xlink="http://www.w3.org/1999/xlink" viewBox="0 0 201.07 26.08">
  <defs>
    <style>
      .cls-1 {
        fill: url(#linear-gradient-2);
      }

      .cls-2 {
        fill: #112d28;
        opacity: .2;
        stroke: #fff;
        stroke-miterlimit: 10;
        stroke-width: .95px;
      }

      .cls-3 {
        fill: #fff;
      }

      .cls-4 {
        fill: #e61e2a;
      }

      .cls-5 {
        fill: #bbc3f0;
      }

      .cls-6 {
        fill: url(#linear-gradient);
      }
    </style>
    <linearGradient id="linear-gradient" x1="142.01" y1="16.04" x2="177.57" y2="15.92" gradientUnits="userSpaceOnUse">
      <stop offset="0" stop-color="#7c5cff"/>
      <stop offset=".14" stop-color="#7a5bfc"/>
      <stop offset=".22" stop-color="#7658f4"/>
      <stop offset=".29" stop-color="#6f53e5"/>
      <stop offset=".35" stop-color="#664bd1"/>
      <stop offset=".4" stop-color="#5942b7"/>
      <stop offset=".45" stop-color="#4a3797"/>
      <stop offset=".49" stop-color="#3c2d7a"/>
      <stop offset=".54" stop-color="#46348d"/>
      <stop offset=".62" stop-color="#4f3ba0"/>
      <stop offset=".7" stop-color="#5640ae"/>
      <stop offset=".8" stop-color="#5a43b6"/>
      <stop offset=".99" stop-color="#5c44b9"/>
    </linearGradient>
    <linearGradient id="linear-gradient-2" x1="142.01" y1="15.98" x2="177.57" y2="15.98" gradientUnits="userSpaceOnUse">
      <stop offset="0" stop-color="#7c5cff"/>
      <stop offset=".15" stop-color="#7a5afc"/>
      <stop offset=".25" stop-color="#7657f2"/>
      <stop offset=".34" stop-color="#6e52e2"/>
      <stop offset=".43" stop-color="#644acb"/>
      <stop offset=".48" stop-color="#5c44b9"/>
      <stop offset=".54" stop-color="#5c44b9"/>
      <stop offset=".99" stop-color="#5c44b9"/>
    </linearGradient>
  </defs>
  <g id="Layer_1-2" data-name="Layer 1">
    <g>
      <path class="cls-6" d="M159.74,13.1c-.15.16-.3.32-.45.48-.17.19-.34.38-.51.57-.08.1-.17.19-.25.29-.04.05-.08.1-.13.15-.02.03-.04.05-.06.08-.02.03-.05.06-.07.09,0,0,0,0,0,0-.03.04-.06.08-.1.12-.04.04-.07.08-.11.13-.07.09-.15.17-.22.26-.15.17-.3.34-.46.51-.31.34-.62.68-.94,1-.64.65-1.3,1.28-1.98,1.85-.17.14-.34.28-.51.42-.17.14-.34.27-.52.39-.35.25-.7.48-1.04.68-.04.02-.09.05-.13.07-.04.02-.09.05-.13.07-.04.02-.08.04-.13.07-.04.02-.08.04-.13.06-.17.08-.33.15-.48.2-.15.06-.3.1-.43.12-.13.03-.24.04-.33.04h0c-.64,0-1.26-.13-1.84-.37h0s-.03-.01-.08-.04c-.03-.01-.06-.03-.1-.04-.04-.02-.08-.04-.14-.07-.03-.01-.05-.03-.08-.04-.01,0-.03-.02-.04-.02-.02,0-.03-.02-.05-.03-.06-.04-.13-.08-.2-.12-.15-.09-.31-.21-.49-.36-.18-.15-.37-.33-.56-.55-.01-.01-.02-.03-.04-.04-.01-.01-.02-.03-.03-.04-.02-.03-.05-.06-.07-.09-.02-.03-.05-.06-.07-.09-.01-.02-.02-.03-.04-.05-.01-.02-.02-.03-.03-.05-.09-.13-.18-.27-.27-.42-.02-.04-.04-.08-.06-.12-.02-.04-.04-.08-.06-.12l-.02-.03s0-.02-.01-.03c0-.02-.02-.04-.03-.06,0-.02-.02-.04-.03-.06,0-.02-.02-.04-.03-.07-.04-.09-.07-.18-.1-.27-.02-.05-.03-.09-.05-.14-.02-.05-.03-.1-.04-.14-.11-.39-.18-.83-.18-1.3h-3.9c0,.84.12,1.63.32,2.34.03.09.05.18.08.26.03.09.06.17.08.26.06.17.12.33.19.49.02.04.03.08.05.12.02.04.04.08.05.12.02.04.04.08.05.11,0,.02.02.04.03.06,0,.02.02.04.03.06.04.07.07.15.11.22.04.07.08.14.12.21.16.28.32.53.49.77.02.03.04.06.06.09.02.03.04.06.06.09.04.06.09.11.13.17.04.05.09.11.13.16.02.03.04.05.06.08.02.03.04.05.07.08.34.4.69.73,1.01,1,.32.27.63.48.9.65.13.09.26.16.37.23.03.02.06.03.08.05.03.02.05.03.08.04.05.03.1.05.15.08.09.05.18.09.25.12.07.03.13.06.18.08.1.04.15.06.15.06,0,0,0,0,0,0,.53.23,1.09.4,1.65.51.57.11,1.14.17,1.72.17h0c.4,0,.77-.05,1.11-.12.34-.07.66-.17.96-.27.3-.11.58-.23.85-.36.07-.03.13-.06.2-.1.07-.03.13-.07.2-.1.06-.03.13-.07.19-.1.06-.03.12-.07.19-.11.49-.28.95-.59,1.39-.91.22-.16.43-.32.64-.48.21-.16.41-.33.61-.5.8-.68,1.54-1.38,2.25-2.11.36-.36.7-.73,1.04-1.11.17-.19.34-.38.51-.57.08-.1.17-.19.25-.29.04-.05.08-.1.13-.15.02-.03.04-.05.06-.08.02-.03.05-.06.07-.09h0s.06-.08.1-.12c.04-.04.07-.09.11-.13.07-.09.15-.17.22-.26.15-.17.3-.34.46-.51.04-.05.09-.09.13-.14-.1-.12-1.01-1.3-1.02-1.3-.04-.04-.72-.75-1.56-1.65ZM177.47,14.68c0-.05-.01-.1-.02-.15,0-.05-.02-.1-.03-.15-.02-.1-.03-.19-.06-.28-.02-.09-.04-.18-.06-.27-.02-.09-.05-.17-.07-.26-.01-.04-.02-.08-.04-.12-.01-.04-.03-.08-.04-.12-.01-.04-.03-.08-.04-.12-.01-.04-.03-.08-.04-.11-.03-.08-.05-.15-.08-.22-.03-.07-.06-.14-.08-.21-.05-.14-.11-.26-.17-.38-.03-.06-.06-.12-.08-.17-.03-.06-.05-.11-.08-.16-.22-.41-.41-.7-.54-.9-.07-.09-.12-.17-.15-.21-.03-.05-.05-.07-.05-.07,0,0,0,0,0,0-.8-1.07-1.85-1.95-3.04-2.55-.6-.3-1.23-.53-1.88-.69-.65-.15-1.32-.23-1.99-.23h0c-.4,0-.77.05-1.11.12-.34.07-.66.17-.96.27-.3.11-.58.23-.85.36-.07.03-.13.06-.2.1-.07.03-.13.07-.2.1-.06.03-.13.07-.19.1-.06.03-.12.07-.19.11-.49.28-.95.59-1.39.91-.22.16-.43.32-.64.48-.21.16-.41.33-.61.5-.72.61-1.39,1.25-2.04,1.9.34.38,2.15,2.41,2.59,2.92.63-.65,1.29-1.27,1.96-1.84.17-.14.34-.28.51-.42.17-.13.34-.27.52-.39.35-.25.7-.48,1.04-.68.04-.02.09-.05.13-.07.04-.02.09-.05.13-.07.04-.02.08-.04.13-.07.04-.02.08-.04.13-.06.17-.08.33-.15.48-.2.15-.06.3-.1.43-.12.13-.03.24-.04.33-.04h0c.74,0,1.47.17,2.12.5.65.33,1.23.82,1.68,1.41h0s.04.05.11.16c.07.11.18.27.3.49.01.03.03.06.04.09.02.03.03.06.05.09.03.07.06.13.09.21.02.04.03.07.05.11.01.04.03.08.04.12,0,.02.02.04.02.06s.01.04.02.07c0,.02.01.04.02.07,0,.02.01.04.02.07.01.05.03.09.04.14.01.05.02.1.03.15.01.05.02.1.03.16,0,.03.01.05.02.08,0,.03,0,.05.01.08.03.22.05.46.05.72h3.9c0-.46-.04-.9-.1-1.3Z"/>
      <path class="cls-5" d="M91.34,13.86h.54v-.13c0-2.46-.98-3.37-3.17-3.37-.78,0-2.29.2-2.29,1.15v.91h-3.98v-1.82c0-3.2,4.52-3.54,6.3-3.54,5.73,0,7.42,3,7.42,6.84v6.41c0,.47.27.74.74.74h1.35v3.61h-3.84c-1.58,0-2.19-.88-2.19-1.89,0-.44.03-.74.03-.74h-.07s-1.31,3.03-5.19,3.03c-3.07,0-5.87-1.92-5.87-5.36,0-5.39,7.42-5.83,10.22-5.83ZM88.03,21.72c2.29,0,3.91-2.43,3.91-4.52v-.4h-.74c-2.23,0-5.77.3-5.77,2.7,0,1.15.84,2.23,2.6,2.23Z"/>
      <path class="cls-5" d="M107.79,7.05c3.74,0,4.96,2.09,4.96,2.09h.07s-.03-.44-.03-1.01v-3.03c0-.51-.27-.74-.74-.74h-1.35V.72h4.08c1.58,0,2.29.71,2.29,2.29v17.3c0,.47.27.74.74.74h1.31v3.61h-3.94c-1.55,0-2.12-.74-2.12-1.75v-.64h-.07s-1.42,2.8-5.36,2.8c-4.65,0-7.65-3.67-7.65-9s3.27-9,7.82-9ZM112.88,16.02c0-2.66-1.38-5.29-4.25-5.29-2.36,0-4.32,1.92-4.32,5.33s1.72,5.39,4.25,5.39c2.23,0,4.32-1.62,4.32-5.43Z"/>
      <path class="cls-5" d="M122.66,10.86h-2.12v-3.41h2.12v-.51c0-5.63,4.62-6.37,7.01-6.37.88,0,1.45.1,1.45.1v3.64s-.37-.07-.88-.07c-1.21,0-3.3.3-3.3,2.8v.4h3.67v3.41h-3.67v13.79h-4.28v-13.79Z"/>
      <path class="cls-5" d="M134.63,5.1c0-.51-.27-.74-.74-.74h-1.35V.72h4.08c1.58,0,2.29.71,2.29,2.29v17.3c0,.47.27.74.74.74h1.31v3.61h-4.05c-1.62,0-2.29-.67-2.29-2.29V5.1Z"/>
      <path class="cls-1" d="M173.68,15.98h.97c.32,0,.65,0,.97,0h.97s.32,0,.97,0c0,.56-.06,1.11-.15,1.63-.1.52-.24,1.02-.42,1.48-.02.06-.05.12-.07.17-.01.03-.02.06-.03.09-.01.03-.02.06-.04.08-.05.11-.1.22-.15.33-.05.11-.11.21-.16.32-.01.03-.03.05-.04.08-.01.03-.03.05-.04.08-.03.05-.06.1-.09.15-.23.4-.49.76-.76,1.09-.07.08-.14.16-.2.24-.03.04-.07.08-.1.12-.04.04-.07.07-.11.11-.04.04-.07.07-.1.11-.02.02-.03.04-.05.05-.02.02-.04.03-.05.05-.07.07-.14.14-.21.2-.29.26-.57.5-.87.7-.14.11-.29.2-.43.29-.07.05-.14.09-.21.13-.07.04-.14.08-.21.12-.07.04-.14.07-.21.11-.03.02-.07.04-.1.05-.03.02-.07.04-.1.05-.07.03-.14.06-.2.09-.03.02-.07.03-.1.04-.02,0-.03.01-.05.02-.02,0-.03.01-.05.02-.07.03-.13.05-.19.08-.03.01-.06.03-.1.04-.03.01-.06.02-.09.03-.13.04-.25.08-.37.12-.12.03-.23.07-.35.1-.06.02-.11.03-.16.04-.05.01-.11.02-.16.04-.05.01-.1.02-.15.03-.05,0-.1.02-.15.03-.1.02-.19.03-.28.05-.09.01-.17.02-.25.03-.04,0-.08,0-.12.01-.04,0-.07,0-.11.01-.14.01-.26.02-.37.03-.03,0-.05,0-.08,0-.02,0-.05,0-.07,0-.04,0-.08,0-.12,0-.14,0-.21,0-.21,0,0,0,0,0,0,0-.24,0-.48-.02-.7-.05-.35-.05-.68-.12-.98-.21-.08-.02-.15-.05-.23-.07l-.22-.08c-.07-.03-.14-.05-.21-.08-.07-.03-.14-.06-.21-.09-.27-.12-.53-.24-.78-.37-.25-.13-.48-.27-.71-.41-.23-.14-.45-.29-.67-.44-.22-.15-.43-.3-.63-.46-.21-.15-.41-.31-.6-.47-.2-.16-.39-.32-.58-.48-.76-.65-1.47-1.34-2.15-2.04-.34-.35-.67-.71-1-1.07-.16-.18-.33-.36-.49-.55-.08-.09-.16-.19-.24-.28-.04-.05-.08-.1-.12-.14-.04-.05-.09-.1-.13-.16,0,0,0,0,0,0l-.1-.12s-.07-.09-.11-.13c-.07-.09-.15-.17-.22-.26-.15-.17-.3-.34-.46-.51-.31-.34-.62-.68-.94-1-.64-.65-1.3-1.28-1.98-1.85-.17-.14-.34-.28-.51-.42-.17-.13-.34-.27-.52-.39-.35-.25-.69-.48-1.04-.68-.04-.02-.09-.05-.13-.07-.04-.02-.09-.05-.13-.07l-.13-.07s-.08-.04-.13-.06c-.17-.08-.33-.15-.48-.2-.15-.06-.3-.1-.43-.12-.13-.03-.24-.04-.33-.04h0c-.12,0-.25,0-.37.02h-.11s-.08.02-.14.03c-.03,0-.06,0-.09.01-.03,0-.07.01-.1.02-.04,0-.07.01-.12.02-.01,0-.02,0-.03,0-.01,0-.02,0-.03,0-.02,0-.04.01-.07.02-.04.01-.09.02-.14.03-.05.01-.1.03-.15.04-.21.06-.45.15-.72.28-.27.13-.55.3-.84.53-.04.03-.07.06-.11.09-.04.03-.07.06-.11.1-.02.02-.04.03-.06.05-.02.02-.04.03-.05.05-.04.03-.07.07-.11.1-.04.04-.07.07-.11.11-.02.02-.04.04-.05.06-.02.02-.03.04-.05.06-.03.04-.07.08-.11.12-.03.04-.07.09-.1.13-.04.04-.07.09-.1.14-.03.05-.07.09-.1.14-.03.05-.06.1-.09.15-.03.05-.06.1-.09.16-.12.21-.22.44-.31.68-.17.49-.28,1.04-.29,1.64h-.97c-.32,0-.65,0-.97,0h-.97s-.32,0-.97,0c0-.54.05-1.06.14-1.55.09-.5.22-.97.38-1.41.16-.44.35-.86.56-1.24.05-.09.11-.19.16-.28.06-.09.11-.18.17-.27.06-.09.12-.17.18-.26.06-.08.12-.17.18-.25.06-.08.12-.16.18-.24.06-.08.13-.15.19-.22.03-.04.06-.07.09-.11.03-.03.07-.07.1-.1.07-.07.13-.14.19-.2.07-.06.13-.13.2-.19.03-.03.07-.06.1-.09.03-.03.07-.06.1-.09.07-.06.13-.11.2-.17.07-.05.13-.11.2-.16.53-.42,1.05-.73,1.54-.96.49-.24.93-.4,1.32-.51.1-.03.19-.05.28-.08.09-.02.18-.04.26-.06.04,0,.08-.02.12-.03.02,0,.04,0,.06-.01.02,0,.04,0,.06-.01.07-.01.15-.03.21-.04.07-.01.13-.02.19-.03.06,0,.11-.01.16-.02.1-.01.18-.02.25-.03.13-.01.2-.02.2-.02.22-.02.45-.02.67-.03,0,0,0,0,0,0,.4,0,.77.05,1.11.12.34.07.66.17.96.27.3.11.58.23.85.36.07.03.13.06.2.1l.2.1c.06.03.13.07.19.1.06.03.12.07.19.11.49.28.95.59,1.39.91.22.16.43.32.64.48.21.16.41.33.61.5.8.68,1.54,1.38,2.25,2.11.36.36.7.73,1.04,1.11.17.19.34.38.51.57.08.1.17.19.25.29.04.05.08.1.13.15.02.03.04.05.06.08.02.03.05.06.07.09,0,0,0,0,0,0,.03.04.06.07.09.11.03.04.07.08.1.12.07.08.14.17.21.25.14.17.29.33.44.49.3.33.6.65.9.97.61.63,1.25,1.24,1.9,1.8.16.14.33.28.49.41.16.13.33.26.5.39.17.12.33.25.5.36.17.11.33.22.5.33.17.1.33.2.5.28.16.09.32.16.48.23.04.02.08.03.12.05.04.01.08.03.11.04.04.01.07.03.11.04.04.01.07.02.11.03.14.04.27.07.38.08.07.01.13.01.19.01h0s.04,0,.12,0c.04,0,.09,0,.15,0,.06,0,.13-.01.2-.02.02,0,.04,0,.06,0,.02,0,.04,0,.06,0,.04,0,.09-.01.14-.02.05,0,.1-.02.15-.03.03,0,.05,0,.08-.01.03,0,.05-.01.08-.02.03,0,.06-.01.09-.02.03,0,.06-.01.09-.02.06-.02.12-.04.19-.05.06-.02.13-.05.2-.07.02,0,.03-.01.05-.02.02,0,.03-.01.05-.02.03-.01.07-.03.11-.04,0,0,.02,0,.03-.01,0,0,.02,0,.03-.01.02,0,.04-.02.05-.02.04-.02.07-.03.11-.05.02,0,.04-.02.06-.03.02,0,.04-.02.06-.03.04-.02.08-.04.12-.06.04-.02.08-.04.11-.07.04-.02.08-.04.12-.07.08-.05.16-.1.24-.16.16-.11.32-.24.48-.39.04-.04.08-.07.12-.11,0,0,.02-.02.03-.03,0-.01.02-.02.03-.03.02-.02.04-.04.06-.06.02-.02.04-.04.06-.06.02-.02.04-.04.06-.06.04-.04.08-.09.11-.13.15-.18.29-.38.42-.6.02-.03.03-.06.05-.08,0-.01.02-.03.02-.04,0-.01.02-.03.02-.04.03-.06.06-.12.09-.17.03-.06.05-.12.08-.18,0-.02.01-.03.02-.05,0-.02.01-.03.02-.05.01-.03.02-.06.04-.09.19-.51.32-1.09.32-1.72Z"/>
      <path class="cls-5" d="M198.17,7.46c-1.4,0-2.07.43-2.41,1.74l-2.47,9.46c-.23.9-.33,1.81-.33,1.81h-.07s-.1-.9-.37-1.81l-3.18-11.13h-3.74l-3.14,11.13c-.27.9-.4,1.81-.4,1.81h-.07s-.1-.9-.33-1.81l-2.51-9.46c-.33-1.3-1-1.74-2.41-1.74h-2.32c2.82,1.79,4.7,4.93,4.7,8.52,0,1.63-.39,3.16-1.08,4.52l1.27,4h4.81l2.87-9.73c.27-.9.43-1.84.43-1.84h.07s.13.94.4,1.84l2.91,9.73h4.78l4.08-12.84c.2-.5.43-.6.94-.6h.47v-3.61h-2.91Z"/>
      <g id="RMIT_white">
        <g>
          <path class="cls-4" d="M7.29,3.53h-1.86v1.51h-3.1v3.15H0v4.63h2.33v3.15h3.1v1.51h1.64c3.83,0,7.22-3.1,7.22-6.96s-3.15-7-6.99-7Z"/>
          <polygon class="cls-3" points="44.63 4.86 46.25 4.86 46.25 16.15 44.63 16.15 44.63 16.74 50.24 16.74 50.24 16.15 48.63 16.15 48.63 4.86 50.24 4.86 50.24 4.27 44.63 4.27 44.63 4.86"/>
          <path class="cls-3" d="M60.92,4.26h-9.98l-.2,3.29h.59c.34-2.39.78-2.95,3.41-2.82v11.42h-1.72v.58h5.83v-.58h-1.72V4.73c2.63-.13,3.08.43,3.41,2.82h.58l-.2-3.29Z"/>
          <path class="cls-3" d="M39.58,5.05v11.1h-1.61v.58h5.6v-.58h-1.61V4.86h1.6v-.6h-4.6l-2.7,8.53-2.61-8.53h-4.58v.59h1.61v11.3h-1.74c-1.62.04-1.64-1.34-1.64-1.62.03-3.04-.66-4.14-3.57-4.59v-.04c1.74-.18,3.96-.68,3.96-2.79,0-2.6-2.42-2.84-4.46-2.84h-6.01v.59h1.61v11.3h-1.61v.59h5.61v-.59h-1.61v-5.95c1.03-.04,2.2.22,2.72.67.49.41.75,1.69.75,3.24,0,1.9.98,2.63,2.87,2.63h5.41v-.58h-1.57V5.05h.04l3.71,11.69h.63l3.74-11.69h.06ZM21.22,9.61h0s0-4.75,0-4.75h1.62c1.66,0,2.28.42,2.28,2.51,0,1.67-.69,2.24-2.37,2.24h-1.53Z"/>
          <path class="cls-3" d="M21.86,20.21v2.7c0,.74-.46,1.18-1.17,1.18s-1.17-.43-1.17-1.17v-2.71c0-.31-.13-.44-.44-.44h-.7v.6h.3c.1,0,.15.05.15.15h0s0,2.43,0,2.43c0,1.07.76,1.8,1.87,1.8s1.85-.73,1.85-1.8v-2.43c0-.1.06-.15.15-.15h.3v-.6h-.69c-.31,0-.45.13-.45.44Z"/>
          <path class="cls-3" d="M27.1,20.21v2.65c0,.28.05.67.05.67h-.01s-.23-.41-.41-.67l-2.18-3.1h-.63v4.14c0,.1-.06.15-.15.15h-.3v.6h.7c.31,0,.44-.13.44-.44v-2.65c0-.27-.04-.67-.04-.67h.01s.22.41.4.67l2.18,3.1h.62v-4.14c0-.1.06-.15.15-.15h.3v-.6h-.69c-.32,0-.45.13-.45.44Z"/>
          <polygon class="cls-3" points="29 20.36 29.47 20.36 29.47 24.05 29 24.05 29 24.65 30.61 24.65 30.61 24.05 30.13 24.05 30.13 20.36 30.61 20.36 30.61 19.76 29 19.76 29 20.36"/>
          <path class="cls-3" d="M34.53,20.16l-1.07,3.01c-.1.27-.18.67-.18.67h-.01s-.1-.41-.18-.67l-1.07-3.01c-.11-.32-.23-.4-.58-.4h-.39v.6h.1c.12,0,.18.03.23.15h0l1.54,4.14h.74l1.54-4.14c.04-.13.1-.15.23-.15h.1v-.6h-.39c-.34,0-.46.08-.57.4Z"/>
          <path class="cls-3" d="M38.78,23.91c0,.1-.06.15-.15.15h-1.43c-.1,0-.15-.06-.15-.15v-1.42h1.71v-.6h-1.71v-1.53h1.39c.1,0,.15.05.15.15v.31h.63v-.62c0-.31-.13-.44-.44-.44h-2.87v.6h.45v3.85c0,.31.13.44.44.44h2.18c.31,0,.44-.13.44-.44v-.62h-.63v.31Z"/>
          <path class="cls-3" d="M43.44,23.89l-.59-1.17c-.08-.16-.21-.22-.21-.22h0c.35-.09.88-.49.88-1.31,0-.89-.6-1.43-1.46-1.43h-2.13v.6h.45v4.29h.69v-1.95h.63c.27,0,.36.04.48.27l.67,1.31c.16.32.3.37.68.37h.34v-.6h-.09c-.17,0-.28-.01-.35-.16ZM41.97,22.11h-.9v-1.75h.91c.51,0,.83.32.83.86s-.31.89-.84.89Z"/>
          <path class="cls-3" d="M45.17,20.97c0-.37.33-.66.86-.66.39,0,.76.19.76.44v.23h.63v-.4c0-.67-.87-.9-1.39-.9-.93,0-1.57.57-1.57,1.31,0,1.52,2.36,1.36,2.36,2.39,0,.45-.38.73-.84.73-.7,0-1.19-.55-1.22-.59l-.4.48s.58.73,1.62.73c.96,0,1.55-.64,1.55-1.39,0-1.61-2.35-1.38-2.35-2.37Z"/>
          <polygon class="cls-3" points="44.76 23.51 44.76 23.52 44.77 23.51 44.76 23.51"/>
          <polygon class="cls-3" points="48.25 20.36 48.73 20.36 48.73 24.05 48.25 24.05 48.25 24.65 49.86 24.65 49.86 24.05 49.39 24.05 49.39 20.36 49.86 20.36 49.86 19.76 48.25 19.76 48.25 20.36"/>
          <path class="cls-3" d="M54.09,19.77h-3.36c-.31,0-.41.1-.41.41v.64h.62v-.31c0-.1.06-.15.15-.15h.98v4.29h.69v-4.29h.98c.1,0,.15.05.15.15v.31h.62v-.64c0-.31-.1-.41-.41-.41Z"/>
          <path class="cls-3" d="M57.88,20.14l-.74,1.23c-.16.27-.3.55-.3.55h-.01s-.14-.27-.3-.55l-.74-1.23c-.2-.32-.33-.37-.66-.37h-.32v.6h.14c.15,0,.21.03.3.17l1.24,1.99h0v2.13h.69v-2.13l1.23-1.99c.09-.15.16-.17.3-.17h.13v-.6h-.32c-.33,0-.47.05-.66.37Z"/>
        </g>
      </g>
      <line class="cls-2" x1="72.45" x2="72.45" y2="26.08"/>
      <g>
        <path class="cls-6" d="M177.47,14.68c0-.05-.01-.1-.02-.15,0-.05-.02-.1-.03-.15-.02-.1-.03-.19-.06-.28-.02-.09-.04-.18-.06-.27-.02-.09-.05-.17-.07-.26-.01-.04-.02-.08-.04-.12-.01-.04-.03-.08-.04-.12-.01-.04-.03-.08-.04-.12-.01-.04-.03-.08-.04-.11-.03-.08-.05-.15-.08-.22-.03-.07-.06-.14-.08-.21-.05-.14-.11-.26-.17-.38-.03-.06-.06-.12-.08-.17-.03-.06-.05-.11-.08-.16-.22-.41-.41-.7-.54-.9-.07-.09-.12-.17-.15-.21-.03-.05-.05-.07-.05-.07,0,0,0,0,0,0-.8-1.07-1.85-1.95-3.04-2.55-.6-.3-1.23-.53-1.88-.69-.65-.15-1.32-.23-1.99-.23h0c-.4,0-.77.05-1.11.12-.34.07-.66.17-.96.27-.3.11-.58.23-.85.36-.07.03-.13.06-.2.1-.07.03-.13.07-.2.1-.06.03-.13.07-.19.1-.06.03-.12.07-.19.11-.49.28-.95.59-1.39.91-.22.16-.43.32-.64.48-.21.16-.41.33-.61.5-.72.61-1.39,1.25-2.04,1.9.34.38,2.15,2.41,2.59,2.92.63-.65,1.29-1.27,1.96-1.84.17-.14.34-.28.51-.42.17-.13.34-.27.52-.39.35-.25.7-.48,1.04-.68.04-.02.09-.05.13-.07.04-.02.09-.05.13-.07.04-.02.08-.04.13-.07.04-.02.08-.04.13-.06.17-.08.33-.15.48-.2.15-.06.3-.1.43-.12.13-.03.24-.04.33-.04h0c.74,0,1.47.17,2.12.5.65.33,1.23.82,1.68,1.41h0s.04.05.11.16c.07.11.18.27.3.49.01.03.03.06.04.09.02.03.03.06.05.09.03.07.06.13.09.21.02.04.03.07.05.11.01.04.03.08.04.12,0,.02.02.04.02.06s.01.04.02.07c0,.02.01.04.02.07,0,.02.01.04.02.07.01.05.03.09.04.14.01.05.02.1.03.15.01.05.02.1.03.16,0,.03.01.05.02.08,0,.03,0,.05.01.08.03.22.05.46.05.72h3.9c0-.46-.04-.9-.1-1.3ZM159.74,13.1c-.15.16-.3.32-.45.48-.17.19-.34.38-.51.57-.08.1-.17.19-.25.29-.04.05-.08.1-.13.15-.02.03-.04.05-.06.08-.02.03-.05.06-.07.09,0,0,0,0,0,0-.03.04-.06.08-.1.12-.04.04-.07.08-.11.13-.07.09-.15.17-.22.26-.15.17-.3.34-.46.51-.31.34-.62.68-.94,1-.64.65-1.3,1.28-1.98,1.85-.17.14-.34.28-.51.42-.17.14-.34.27-.52.39-.35.25-.7.48-1.04.68-.04.02-.09.05-.13.07-.04.02-.09.05-.13.07-.04.02-.08.04-.13.07-.04.02-.08.04-.13.06-.17.08-.33.15-.48.2-.15.06-.3.1-.43.12-.13.03-.24.04-.33.04h0c-.64,0-1.26-.13-1.84-.37h0s-.03-.01-.08-.04c-.03-.01-.06-.03-.1-.04-.04-.02-.08-.04-.14-.07-.03-.01-.05-.03-.08-.04-.01,0-.03-.02-.04-.02-.02,0-.03-.02-.05-.03-.06-.04-.13-.08-.2-.12-.15-.09-.31-.21-.49-.36-.18-.15-.37-.33-.56-.55-.01-.01-.02-.03-.04-.04-.01-.01-.02-.03-.03-.04-.02-.03-.05-.06-.07-.09-.02-.03-.05-.06-.07-.09-.01-.02-.02-.03-.04-.05-.01-.02-.02-.03-.03-.05-.09-.13-.18-.27-.27-.42-.02-.04-.04-.08-.06-.12-.02-.04-.04-.08-.06-.12l-.02-.03s0-.02-.01-.03c0-.02-.02-.04-.03-.06,0-.02-.02-.04-.03-.06,0-.02-.02-.04-.03-.07-.04-.09-.07-.18-.1-.27-.02-.05-.03-.09-.05-.14-.02-.05-.03-.1-.04-.14-.11-.39-.18-.83-.18-1.3h-3.9c0,.84.12,1.63.32,2.34.03.09.05.18.08.26.03.09.06.17.08.26.06.17.12.33.19.49.02.04.03.08.05.12.02.04.04.08.05.12.02.04.04.08.05.11,0,.02.02.04.03.06,0,.02.02.04.03.06.04.07.07.15.11.22.04.07.08.14.12.21.16.28.32.53.49.77.02.03.04.06.06.09.02.03.04.06.06.09.04.06.09.11.13.17.04.05.09.11.13.16.02.03.04.05.06.08.02.03.04.05.07.08.34.4.69.73,1.01,1,.32.27.63.48.9.65.13.09.26.16.37.23.03.02.06.03.08.05.03.02.05.03.08.04.05.03.1.05.15.08.09.05.18.09.25.12.07.03.13.06.18.08.1.04.15.06.15.06,0,0,0,0,0,0,.53.23,1.09.4,1.65.51.57.11,1.14.17,1.72.17h0c.4,0,.77-.05,1.11-.12.34-.07.66-.17.96-.27.3-.11.58-.23.85-.36.07-.03.13-.06.2-.1.07-.03.13-.07.2-.1.06-.03.13-.07.19-.1.06-.03.12-.07.19-.11.49-.28.95-.59,1.39-.91.22-.16.43-.32.64-.48.21-.16.41-.33.61-.5.8-.68,1.54-1.38,2.25-2.11.36-.36.7-.73,1.04-1.11.17-.19.34-.38.51-.57.08-.1.17-.19.25-.29.04-.05.08-.1.13-.15.02-.03.04-.05.06-.08.02-.03.05-.06.07-.09h0s.06-.08.1-.12c.04-.04.07-.09.11-.13.07-.09.15-.17.22-.26.15-.17.3-.34.46-.51.04-.05.09-.09.13-.14-.1-.12-1.01-1.3-1.02-1.3-.04-.04-.72-.75-1.56-1.65Z"/>
        <path class="cls-1" d="M173.68,15.98h.97c.32,0,.65,0,.97,0h.97s.32,0,.97,0c0,.56-.06,1.11-.15,1.63-.1.52-.24,1.02-.42,1.48-.02.06-.05.12-.07.17-.01.03-.02.06-.03.09-.01.03-.02.06-.04.08-.05.11-.1.22-.15.33-.05.11-.11.21-.16.32-.01.03-.03.05-.04.08-.01.03-.03.05-.04.08-.03.05-.06.1-.09.15-.23.4-.49.76-.76,1.09-.07.08-.14.16-.2.24-.03.04-.07.08-.1.12-.04.04-.07.07-.11.11-.04.04-.07.07-.1.11-.02.02-.03.04-.05.05-.02.02-.04.03-.05.05-.07.07-.14.14-.21.2-.29.26-.57.5-.87.7-.14.11-.29.2-.43.29-.07.05-.14.09-.21.13-.07.04-.14.08-.21.12-.07.04-.14.07-.21.11-.03.02-.07.04-.1.05-.03.02-.07.04-.1.05-.07.03-.14.06-.2.09-.03.02-.07.03-.1.04-.02,0-.03.01-.05.02-.02,0-.03.01-.05.02-.07.03-.13.05-.19.08-.03.01-.06.03-.1.04-.03.01-.06.02-.09.03-.13.04-.25.08-.37.12-.12.03-.23.07-.35.1-.06.02-.11.03-.16.04-.05.01-.11.02-.16.04-.05.01-.1.02-.15.03-.05,0-.1.02-.15.03-.1.02-.19.03-.28.05-.09.01-.17.02-.25.03-.04,0-.08,0-.12.01-.04,0-.07,0-.11.01-.14.01-.26.02-.37.03-.03,0-.05,0-.08,0-.02,0-.05,0-.07,0-.04,0-.08,0-.12,0-.14,0-.21,0-.21,0,0,0,0,0,0,0-.24,0-.48-.02-.7-.05-.35-.05-.68-.12-.98-.21-.08-.02-.15-.05-.23-.07l-.22-.08c-.07-.03-.14-.05-.21-.08-.07-.03-.14-.06-.21-.09-.27-.12-.53-.24-.78-.37-.25-.13-.48-.27-.71-.41-.23-.14-.45-.29-.67-.44-.22-.15-.43-.3-.63-.46-.21-.15-.41-.31-.6-.47-.2-.16-.39-.32-.58-.48-.76-.65-1.47-1.34-2.15-2.04-.34-.35-.67-.71-1-1.07-.16-.18-.33-.36-.49-.55-.08-.09-.16-.19-.24-.28-.04-.05-.08-.1-.12-.14-.04-.05-.09-.1-.13-.16,0,0,0,0,0,0l-.1-.12s-.07-.09-.11-.13c-.07-.09-.15-.17-.22-.26-.15-.17-.3-.34-.46-.51-.31-.34-.62-.68-.94-1-.64-.65-1.3-1.28-1.98-1.85-.17-.14-.34-.28-.51-.42-.17-.13-.34-.27-.52-.39-.35-.25-.69-.48-1.04-.68-.04-.02-.09-.05-.13-.07-.04-.02-.09-.05-.13-.07l-.13-.07s-.08-.04-.13-.06c-.17-.08-.33-.15-.48-.2-.15-.06-.3-.1-.43-.12-.13-.03-.24-.04-.33-.04h0c-.12,0-.25,0-.37.02h-.11s-.08.02-.14.03c-.03,0-.06,0-.09.01-.03,0-.07.01-.1.02-.04,0-.07.01-.12.02-.01,0-.02,0-.03,0-.01,0-.02,0-.03,0-.02,0-.04.01-.07.02-.04.01-.09.02-.14.03-.05.01-.1.03-.15.04-.21.06-.45.15-.72.28-.27.13-.55.3-.84.53-.04.03-.07.06-.11.09-.04.03-.07.06-.11.1-.02.02-.04.03-.06.05-.02.02-.04.03-.05.05-.04.03-.07.07-.11.1-.04.04-.07.07-.11.11-.02.02-.04.04-.05.06-.02.02-.03.04-.05.06-.03.04-.07.08-.11.12-.03.04-.07.09-.1.13-.04.04-.07.09-.1.14-.03.05-.07.09-.1.14-.03.05-.06.1-.09.15-.03.05-.06.1-.09.16-.12.21-.22.44-.31.68-.17.49-.28,1.04-.29,1.64h-.97c-.32,0-.65,0-.97,0h-.97s-.32,0-.97,0c0-.54.05-1.06.14-1.55.09-.5.22-.97.38-1.41.16-.44.35-.86.56-1.24.05-.09.11-.19.16-.28.06-.09.11-.18.17-.27.06-.09.12-.17.18-.26.06-.08.12-.17.18-.25.06-.08.12-.16.18-.24.06-.08.13-.15.19-.22.03-.04.06-.07.09-.11.03-.03.07-.07.1-.1.07-.07.13-.14.19-.2.07-.06.13-.13.2-.19.03-.03.07-.06.1-.09.03-.03.07-.06.1-.09.07-.06.13-.11.2-.17.07-.05.13-.11.2-.16.53-.42,1.05-.73,1.54-.96.49-.24.93-.4,1.32-.51.1-.03.19-.05.28-.08.09-.02.18-.04.26-.06.04,0,.08-.02.12-.03.02,0,.04,0,.06-.01.02,0,.04,0,.06-.01.07-.01.15-.03.21-.04.07-.01.13-.02.19-.03.06,0,.11-.01.16-.02.1-.01.18-.02.25-.03.13-.01.2-.02.2-.02.22-.02.45-.02.67-.03,0,0,0,0,0,0,.4,0,.77.05,1.11.12.34.07.66.17.96.27.3.11.58.23.85.36.07.03.13.06.2.1l.2.1c.06.03.13.07.19.1.06.03.12.07.19.11.49.28.95.59,1.39.91.22.16.43.32.64.48.21.16.41.33.61.5.8.68,1.54,1.38,2.25,2.11.36.36.7.73,1.04,1.11.17.19.34.38.51.57.08.1.17.19.25.29.04.05.08.1.13.15.02.03.04.05.06.08.02.03.05.06.07.09,0,0,0,0,0,0,.03.04.06.07.09.11.03.04.07.08.1.12.07.08.14.17.21.25.14.17.29.33.44.49.3.33.6.65.9.97.61.63,1.25,1.24,1.9,1.8.16.14.33.28.49.41.16.13.33.26.5.39.17.12.33.25.5.36.17.11.33.22.5.33.17.1.33.2.5.28.16.09.32.16.48.23.04.02.08.03.12.05.04.01.08.03.11.04.04.01.07.03.11.04.04.01.07.02.11.03.14.04.27.07.38.08.07.01.13.01.19.01h0s.04,0,.12,0c.04,0,.09,0,.15,0,.06,0,.13-.01.2-.02.02,0,.04,0,.06,0,.02,0,.04,0,.06,0,.04,0,.09-.01.14-.02.05,0,.1-.02.15-.03.03,0,.05,0,.08-.01.03,0,.05-.01.08-.02.03,0,.06-.01.09-.02.03,0,.06-.01.09-.02.06-.02.12-.04.19-.05.06-.02.13-.05.2-.07.02,0,.03-.01.05-.02.02,0,.03-.01.05-.02.03-.01.07-.03.11-.04,0,0,.02,0,.03-.01,0,0,.02,0,.03-.01.02,0,.04-.02.05-.02.04-.02.07-.03.11-.05.02,0,.04-.02.06-.03.02,0,.04-.02.06-.03.04-.02.08-.04.12-.06.04-.02.08-.04.11-.07.04-.02.08-.04.12-.07.08-.05.16-.1.24-.16.16-.11.32-.24.48-.39.04-.04.08-.07.12-.11,0,0,.02-.02.03-.03,0-.01.02-.02.03-.03.02-.02.04-.04.06-.06.02-.02.04-.04.06-.06.02-.02.04-.04.06-.06.04-.04.08-.09.11-.13.15-.18.29-.38.42-.6.02-.03.03-.06.05-.08,0-.01.02-.03.02-.04,0-.01.02-.03.02-.04.03-.06.06-.12.09-.17.03-.06.05-.12.08-.18,0-.02.01-.03.02-.05,0-.02.01-.03.02-.05.01-.03.02-.06.04-.09.19-.51.32-1.09.32-1.72Z"/>
      </g>
    </g>
  </g>
</svg>